# xmcd
#
# Track frame offsets:
#	150
#	13182
#	24278
#	37101
#	46880
#	57903
#	74068
#	88092
#	101552
#	117002
#	128538
#	140576
#	153389
#	164525
#	181944
#	199278
#	214758
#	231289
#	247454
#	260353
#	275836
#	285683
#	297830
#	309283
#
# Disc length: 4245 seconds
#
# Revision: 1
# Processed by: cddbd v1.5.2PL0 Copyright (c) Steve Scherf et al.
# Submitted via: audiograbber 1.83.01
#
DISCID=6f109318
DTITLE=The Greatest Country Music Recordings Of All Time - Record 3 and 4
DYEAR=1900
DGENRE=
TTITLE0=Curly Putnam - My Elusive Dreams
TTITLE1=John D. Loudermilk - Then You Can Tell Me Goodbye
TTITLE2=Joe South - Rose Garden
TTITLE3=Linda Hargrove - (Just Get Up And) Close The Door
TTITLE4=Allen Reynolds - Dreaming My Dreams With You
TTITLE5=Don Schlitz - The Gambler
TTITLE6=John Hartford - Gentle On My Mind
TTITLE7=Sandy Theoret - When I Dream
TTITLE8=Rodney Crowell - Leaving Louisiana In The Broad Daylight
TTITLE9=Harlan Howard - Heartaches By The Number
TTITLE10=John D. Loudermilk - It's My Time
TTITLE11=Bill Anderson - Po' Folks
TTITLE12=John Scweers - Daydreams About Night Things
TTITLE13=Ed Bruce - Mamas Don't Let Your Babies Grow Up To Be Cowboys
TTITLE14=Townes Van Zndt - If I Needed You
TTITLE15=Danny Dill - Long Black Veil
TTITLE16=Sonny Throckmorton - Last Cheater's Waltz
TTITLE17=Bob McDill - Come Early Morning
TTITLE18=John Schweers - She's Just And Old Love Turned Memory
TTITLE19=Danny Dill - Detroit City
TTITLE20=Hank Cochran - He's Got You
TTITLE21=Boudleux and Felice Bryant - Rocky Top
TTITLE22=Allen Reynolds - Ready For The Times To Get Better
TTITLE23=Billy Joe Shaver - I'm Just An Old Chunk Of Coal (But I'm Gonna Be A D
TTITLE23=iamond Some Day)
EXTD=
EXTT0=
EXTT1=
EXTT2=
EXTT3=
EXTT4=
EXTT5=
EXTT6=
EXTT7=
EXTT8=
EXTT9=
EXTT10=
EXTT11=
EXTT12=
EXTT13=
EXTT14=
EXTT15=
EXTT16=
EXTT17=
EXTT18=
EXTT19=
EXTT20=
EXTT21=
EXTT22=
EXTT23=
PLAYORDER=
